<svg id="Layer_1" data-name="Layer 1" xmlns="http://www.w3.org/2000/svg" viewBox="0 0 985.74 729.187">
  <g>
    <g>
      <g>
        <path d="M26.041,554.4C-30.924,438.935,4.51,307.928,142.794,261.912c106.254-35.359,269.211-38.321,337.02-146.938C589.731-61.095,864.266-41.407,962.871,218.938c89.723,236.893-96.622,613.327-348.643,483.842-210.012-107.9-243.8,12.051-380.335,3.327C128.6,699.379,45.258,593.352,26.041,554.4Z" fill="#f3f5fd"></path>
        <path d="M26.041,554.4C-30.924,438.935,4.51,307.928,142.794,261.912c106.254-35.359,269.211-38.321,337.02-146.938C589.731-61.095,864.266-41.407,962.871,218.938c89.723,236.893-96.622,613.327-348.643,483.842-210.012-107.9-243.8,12.051-380.335,3.327C128.6,699.379,45.258,593.352,26.041,554.4Z" fill="#367cff"></path>
        <g opacity="0.75">
          <path d="M26.041,554.4C-30.924,438.935,4.51,307.928,142.794,261.912c106.254-35.359,269.211-38.321,337.02-146.938C589.731-61.095,864.266-41.407,962.871,218.938c89.723,236.893-96.622,613.327-348.643,483.842-210.012-107.9-243.8,12.051-380.335,3.327C128.6,699.379,45.258,593.352,26.041,554.4Z" fill="#292a2e"></path>
        </g>
      </g>
      <g opacity="0.18">
        <circle cx="326.365" cy="263.407" r="4.087" fill="#fff"></circle>
        <circle cx="364.627" cy="339.103" r="7.43" fill="#fff"></circle>
        <circle cx="599.522" cy="131.906" r="7.43" fill="#fff"></circle>
        <circle cx="364" cy="549.426" r="3.847" fill="#fff"></circle>
        <circle cx="703.133" cy="455.035" r="10.827" fill="#fff"></circle>
        <circle cx="320.336" cy="645.326" r="6.029" fill="#fff"></circle>
        <circle cx="783.716" cy="90.153" r="10.755" fill="#fff"></circle>
        <circle cx="714.03" cy="285.485" r="5.448" fill="#fff"></circle>
        <circle cx="55.152" cy="405.336" r="5.448" fill="#fff"></circle>
        <circle cx="522.836" cy="406.492" r="7.159" fill="#fff"></circle>
        <circle cx="448.682" cy="609.784" r="5.377" fill="#fff"></circle>
        <circle cx="820.299" cy="319.347" r="11.311" fill="#fff"></circle>
        <circle cx="880.852" cy="171.188" r="6.654" fill="#fff"></circle>
        <circle cx="508.443" cy="546.971" r="7.233" fill="#fff"></circle>
        <circle cx="740.337" cy="657.663" r="8.545" fill="#fff"></circle>
        <circle cx="915.876" cy="441.641" r="10.755" fill="#fff"></circle>
        <circle cx="899.533" cy="291.818" r="6.654" fill="#fff"></circle>
        <circle cx="645.932" cy="634.8" r="5.655" fill="#fff"></circle>
      </g>
      <g>
        <path d="M733.06,224.668a378.043,378.043,0,0,0,44.209,12.258,51.249,51.249,0,0,1-86.726-29.53A377.925,377.925,0,0,0,733.06,224.668Z" fill="#0cbc8b"></path>
        <path d="M789.812,216.938a50.915,50.915,0,0,1-8.575,15.6,355.73,355.73,0,0,1-46.545-12.666A356.043,356.043,0,0,1,690.077,201.5a50.911,50.911,0,0,1,2.727-17.593,51.439,51.439,0,0,1,4.8-10.242,49.752,49.752,0,0,1,3.148-4.572,51.257,51.257,0,0,1,91.807,31.26,49.793,49.793,0,0,1-.3,5.543A51.388,51.388,0,0,1,789.812,216.938Z" fill="#0cbc8b"></path>
        <g>
          <path d="M829.25,233.549c-3.158,9.275-24.87,8.984-51.981,3.377a49.141,49.141,0,0,0,3.968-4.386c25.709,4.969,41.661,3.955,43.22-.623,1.522-4.47-9.895-14.616-32.2-26.02a49.793,49.793,0,0,0,.3-5.543C816.157,212.107,832.306,224.573,829.25,233.549Z" fill="#fff"></path>
          <path d="M781.237,232.54a49.141,49.141,0,0,1-3.968,4.386,378.043,378.043,0,0,1-44.209-12.258A377.925,377.925,0,0,1,690.543,207.4a49.161,49.161,0,0,1-.466-5.895,356.043,356.043,0,0,0,44.615,18.373A355.73,355.73,0,0,0,781.237,232.54Z" fill="#fff"></path>
          <path d="M690.543,207.4c-24.9-12.1-42.277-25.12-39.119-34.395,3.056-8.976,23.469-8.993,49.326-3.907a49.752,49.752,0,0,0-3.148,4.572c-24.627-4.574-39.863-3.5-41.385.967-1.558,4.578,10.472,15.12,33.86,26.868A49.161,49.161,0,0,0,690.543,207.4Z" fill="#fff"></path>
        </g>
      </g>
      <g>
        <circle cx="522.836" cy="267.494" r="46.019" fill="#367cff"></circle>
        <g opacity="0.79">
          <circle cx="522.836" cy="267.494" r="46.019" fill="#fff"></circle>
        </g>
        <g opacity="0.18">
          <circle cx="547.845" cy="248.639" r="9.612" fill="#367cff"></circle>
        </g>
        <g opacity="0.18">
          <path d="M540.346,224.93a6.589,6.589,0,1,1-12.53-3.192A45.473,45.473,0,0,1,540.346,224.93Z" fill="#367cff"></path>
        </g>
        <g opacity="0.18">
          <circle cx="506.723" cy="258.253" r="20.45" fill="#367cff"></circle>
        </g>
        <path d="M556.78,298.565a45.541,45.541,0,0,1-16.219,11.4,9.95,9.95,0,1,1,16.219-11.4Z" fill="#367cff" opacity="0.18"></path>
      </g>
      <g>
        <path d="M874.781,497.684a45.259,45.259,0,0,1,1.583,8.762,44.892,44.892,0,0,1-84.658,24.083,45.278,45.278,0,0,1-4.96-18.934,44.9,44.9,0,0,1,83.869-23.858A45.012,45.012,0,0,1,874.781,497.684Z" fill="#367cff"></path>
        <g opacity="0.64">
          <path d="M874.781,497.684a45.259,45.259,0,0,1,1.583,8.762,44.892,44.892,0,0,1-84.658,24.083,45.278,45.278,0,0,1-4.96-18.934,44.9,44.9,0,0,1,83.869-23.858A45.012,45.012,0,0,1,874.781,497.684Z" fill="#fff"></path>
        </g>
        <g opacity="0.28">
          <path d="M870.615,487.737,786.746,511.6a44.514,44.514,0,0,1,3.351-18.681l67.836-19.3A44.518,44.518,0,0,1,870.615,487.737Z" fill="#fff"></path>
        </g>
        <g opacity="0.28">
          <path d="M876.364,506.446a44.722,44.722,0,0,1-2.406,18.413l-70.515,20.06a44.732,44.732,0,0,1-11.737-14.39Z" fill="#fff"></path>
        </g>
      </g>
    </g>
    <g>
      <g>
        <g>
          <path id="sk" d="M311.712,355.136c-.293-.038-3.54,53.844-66.136,49.146-43.335-3.246-58.786-49.222-59.779-49.222,4.673-.993,10.447-2.5,12.741-3.017,7.624-1.718,17.141-8.009,19.34-21.261,1.268-7.637-.882-46.711-.221-54.438l66.519,14.847c-.93,16.32-7.435,54.155,15.365,60.851C303.335,353.15,307.421,354.168,311.712,355.136Z" fill="#E98862"></path>
          <path id="sh" d="M285.108,336.58a48.209,48.209,0,0,1-2-10.324,110.078,110.078,0,0,1,.435-24.012,72.932,72.932,0,0,1-36.764-16.107c-1.235,4.562-8.028,24.494-6.147,28.829C244.186,323.161,260.892,336.58,285.108,336.58Z" fill="#0c0c0c" opacity="1"></path>
        </g>
        <g>
          <path d="M305.915,217.554s15.286-18.218,12.475-51.412c-2.176-25.7-21.421-4.3-21.421-4.3s-1.747-18.49-14.4-13.7-15.648,25.321-15.648,25.321" fill="#0c0c0c"></path>
          <path d="M215.474,165.786S152.21,187.663,195.88,270.163l5.828-.936,11.83-1.9" fill="#0c0c0c"></path>
          <path d="M276.276,318.335c-26.1,3.591-60.429-5.526-68.857-40.139l-7.605-31.232c-8.428-34.614,2.919-67.1,35.51-75.036h0c32.59-7.936,63.782,14.193,72.21,48.806l3.367,13.827a107.536,107.536,0,0,1,2.236,14.472c1.194,12.861,2.959,32.426-2.557,47.205C305.372,310.19,292.952,316.042,276.276,318.335Z" fill="#E98862"></path>
          <path d="M280.841,283.874a34.6,34.6,0,0,0,14.681-6.466.846.846,0,0,0-1-1.368c-9.362,6.815-18.937,8.335-27.688,4.4a5.71,5.71,0,0,0-.545-.226.847.847,0,0,0-.491,1.621c.068.024.182.077.341.149A25.371,25.371,0,0,0,280.841,283.874Z" fill="#0c0c0c" opacity="1"></path>
          <path d="M282.394,291.751a17.172,17.172,0,0,0,2.844-.726.847.847,0,0,0-.551-1.6c-5.573,1.922-8.9-.068-9.041-.154a.847.847,0,0,0-.9,1.434A11.469,11.469,0,0,0,282.394,291.751Z" fill="#0c0c0c" opacity="1"></path>
          <circle cx="301.98" cy="233.948" r="4.131" fill="#0c0c0c"></circle>
          <circle cx="262.706" cy="243.212" r="4.131" fill="#0c0c0c"></circle>
          <path d="M212.011,288.248c-9.9,2.411-20.513-6.229-22.925-16.133s4.288-17.321,14.192-19.733L210,257.776l10.529,28.4Z" fill="#E98862"></path>
          <path d="M218.221,270.013s-7.947-49.894,6.25-56.354c9.455-4.3,36.749,4.234,58.054-5.142,9.321-4.1,19.131-3.818,21.131.57.793,1.738.838-25.86-19-42.233-15.8-13.035-56.6-8.355-73.5,1-46.8,25.9-9.424,87.163-9.424,87.163l6.131,16.421Z" fill="#0c0c0c"></path>
          <g opacity="1">
            <path d="M284.179,270.9l.064-.013c3.193-.768,8.464-2.414,7.892-4.8-.478-1.979-11.04-22.043-12.244-24.324a.837.837,0,0,0-1.48.781c4.686,8.884,11.772,22.59,12.1,23.935-.178.64-3.349,1.989-6.656,2.785a.837.837,0,0,0,.327,1.64Z" fill="#0c0c0c"></path>
          </g>
          <path d="M289.046,226.889a16.267,16.267,0,0,1,7.791-3.224,14.4,14.4,0,0,1,4.342.056,17.733,17.733,0,0,1,4.252,1.246l.106.042a1.446,1.446,0,0,0,1.176-2.64,20.834,20.834,0,0,0-4.9-1.845,17.829,17.829,0,0,0-5.3-.465,19.57,19.57,0,0,0-5.244,1,19.325,19.325,0,0,0-4.925,2.427,2.175,2.175,0,0,0,2.462,3.587c.045-.031.089-.064.132-.1Z" fill="#0c0c0c"></path>
          <path d="M264.548,228.385a19.3,19.3,0,0,0-5.487-.195,19.514,19.514,0,0,0-5.194,1.236,17.812,17.812,0,0,0-4.639,2.595,20.75,20.75,0,0,0-3.716,3.692,1.446,1.446,0,0,0,2.15,1.931l.084-.087a17.681,17.681,0,0,1,3.367-2.878,14.381,14.381,0,0,1,3.938-1.832,16.269,16.269,0,0,1,8.427-.253l.129.034a2.175,2.175,0,1,0,1.107-4.207C264.66,228.407,264.6,228.4,264.548,228.385Z" fill="#0c0c0c"></path>
          <ellipse cx="262.92" cy="169.163" rx="13.955" ry="20.541" transform="translate(-46.677 125.654) rotate(-24.758)" fill="#0c0c0c"></ellipse>
        </g>
      </g>
      <path d="M371.908,364.282c-13.37-7.92-62.8-12.24-72.37-12.24-.29,0,3.65,41.63-55.39,38.85-43.38-2.05-45.2-38.85-45.2-38.85s-21.48,1.39-35.77,3.32c-23.39,3.17-45.1,16.91-58.25,39.78-13.18,22.92-9.2,38.23-3.86,86.25,4.87,43.78,10.52,134.63,12.87,174.45q4.14,3.225,8.42,6.33,2.628,1.906,5.311,3.76c.13.09.258.182.389.271q2.636,1.821,5.323,3.586c.087.057.171.116.257.173h0c29.563,19.407,63.575,33.813,100.255,36.15,58.97,3.77,98.77-16.47,141.88-31.98-.09-2.71-.14-4.16-.14-4.16l-.325-.01h.715c1.89-28.53,8.42-173.04,10.4-196.2C390.608,424.672,408.338,385.862,371.908,364.282Z" fill="#367cff"></path>
      <g>
        <path d="M614.588,419.94a8.147,8.147,0,0,1,10.845-4.719,8.458,8.458,0,0,1,4.315,10.71L626,436.273l23.572-24.035c2.93-3.077,8.493-4.978,11.727-1.465,2.8,2.668,9.278,3.49,10.329,8.49.036.026-.03,45.788-2.747,48.641h0c-11.53,12.108-39.4,14.45-54.948,8.3l-24.471-9.676Z" fill="#E98862"></path>
        <g opacity="0.1">
          <path d="M614.588,419.94a8.147,8.147,0,0,1,10.845-4.719,8.458,8.458,0,0,1,4.315,10.71L626,436.273l23.572-24.035c2.93-3.077,8.493-4.978,11.727-1.465,2.8,2.668,9.278,3.49,10.329,8.49.036.026-.03,45.788-2.747,48.641h0c-11.53,12.108-39.4,14.45-54.948,8.3l-24.471-9.676Z" fill="#0c0c0c"></path>
        </g>
        <g>
          <path d="M708.581,379.453a9.874,9.874,0,0,0-10.714-9.839l-47.611,4.065a17.029,17.029,0,0,0-15.58,16.967V471.8a9.875,9.875,0,0,0,9.874,9.875h0a9.874,9.874,0,0,0,9.874-9.875V408.506a9.875,9.875,0,0,1,11.129-9.794l31.9,4.084A9.874,9.874,0,0,0,708.581,393Z" fill="#f2f2f2"></path>
          <path d="M644.55,482.674A10.886,10.886,0,0,1,633.676,471.8V390.646a17.923,17.923,0,0,1,16.5-17.964l47.611-4.064a10.873,10.873,0,0,1,11.8,10.835V393a10.873,10.873,0,0,1-12.256,10.786l-31.9-4.085a8.876,8.876,0,0,0-10,8.8V471.8A10.888,10.888,0,0,1,644.55,482.674Zm54.183-112.1c-.259,0-.519.012-.781.034l-47.611,4.064a15.935,15.935,0,0,0-14.665,15.971V471.8a8.875,8.875,0,0,0,17.749,0V408.506A10.873,10.873,0,0,1,665.68,397.72l31.9,4.085a8.877,8.877,0,0,0,10-8.8V379.453a8.876,8.876,0,0,0-8.848-8.876Z" fill="#0c0c0c"></path>
        </g>
        <path d="M637.675,448.556A6.671,6.671,0,0,1,644.1,443.7c-.019-.116-.145-.385.057-.406l-5.007-2.432a6.792,6.792,0,0,1-3.669-8.135,6.541,6.541,0,0,1,7.656-4.281c-.022-.061.01-.129.008-.195l-2.057-1a6.706,6.706,0,0,1-3.7-7.633,6.551,6.551,0,0,1,9.2-4.248l4.749,2.306c.008-.028-.009-.055,0-.081s.057-.042.076-.072a6.54,6.54,0,0,1-1.8-7.959c1.445-3.554,6.166-3.688,9.236-2.2l9.307,5.448a10.093,10.093,0,0,1,4.977,8.138c.83,14.378,2.1,51.982-7.7,47.224L641.311,456.46A7.089,7.089,0,0,1,637.675,448.556Z" fill="#E98862"></path>
      </g>
      <path d="M596.576,428.853,474.29,526.583,390.688,383.7l-82.476,48.257,111.5,190.555.84,1.453a46.643,46.643,0,0,0,71.34,10.824L648.381,495.323Z" fill="#367cff"></path>
      <g>
        <g>
          <path d="M484.508,463.792a9.873,9.873,0,0,0-10.714-9.838l-47.611,4.064a17.029,17.029,0,0,0-15.58,16.967v81.153a9.875,9.875,0,0,0,9.874,9.875h0a9.874,9.874,0,0,0,9.874-9.875V492.845a9.875,9.875,0,0,1,11.129-9.794l31.9,4.084a9.874,9.874,0,0,0,11.128-9.794Z" fill="#f2f2f2"></path>
          <path d="M420.477,567.013A10.886,10.886,0,0,1,409.6,556.139V474.985a17.923,17.923,0,0,1,16.5-17.964l47.611-4.064a10.875,10.875,0,0,1,11.8,10.835v13.549a10.874,10.874,0,0,1-12.255,10.786l-31.9-4.085a8.874,8.874,0,0,0-10,8.8v63.294A10.887,10.887,0,0,1,420.477,567.013Zm54.182-112.1c-.258,0-.518.012-.78.034l-47.611,4.064A15.934,15.934,0,0,0,411.6,474.985v81.154a8.875,8.875,0,0,0,17.749,0V492.845a10.874,10.874,0,0,1,12.256-10.786l31.9,4.084a8.874,8.874,0,0,0,10-8.8V463.792a8.876,8.876,0,0,0-8.849-8.876Z" fill="#0c0c0c"></path>
        </g>
        <path d="M398.234,488.589a7.668,7.668,0,0,1,10.206-4.442,7.96,7.96,0,0,1,4.061,10.08l-2.065,5.692,16.635-9.482c3.839-2.675,9.451-3.766,13.1-1.717,3.826,2.148,6.67,7.138,7.659,11.844.034.025,2.765,21.287-1.991,31.986-6.393,14.377-35.613,27.034-50.245,21.248l-23.03-9.106Z" fill="#E98862"></path>
      </g>
      <path d="M384.007,522.633h-.029a.867.867,0,0,1-.84-.9l1.737-53.176a.89.89,0,0,1,.9-.84.868.868,0,0,1,.84.9l-1.737,53.176A.869.869,0,0,1,384.007,522.633Z" fill="#0c0c0c"></path>
      <path d="M389.026,493.314l-143.864,42.6-49.1-129.61-95.794,38.636,71.618,167.231.984,2.3a46.333,46.333,0,0,0,58.183,25.238L415.3,573.607Z" fill="#367cff"></path>
      <path d="M215.462,643.3a47.263,47.263,0,0,1-43.387-28.484l-.984-2.3L107.32,479.863a.869.869,0,0,1,1.566-.753L172.672,611.8l1,2.336A45.519,45.519,0,0,0,230.763,638.9l183.445-65.822-25.745-78.688L245.409,536.751a.872.872,0,0,1-1.043-.486L204.4,444.53a.869.869,0,0,1,1.593-.694l39.655,91.031,143.127-42.386a.868.868,0,0,1,1.073.563l26.27,80.293a.868.868,0,0,1-.532,1.088L231.35,640.531A46.982,46.982,0,0,1,215.462,643.3Z" fill="#0c0c0c"></path>
      <path d="M220.526,544.486a.868.868,0,0,1-.259-1.7l24.636-7.7a.869.869,0,0,1,.518,1.658l-24.637,7.7A.856.856,0,0,1,220.526,544.486Z" fill="#0c0c0c"></path>
      <g>
        <path d="M244.963,247.773l-46.981,5.877a4.585,4.585,0,0,1-5.119-3.981h0a4.586,4.586,0,0,1,3.981-5.119l46.981-5.877Z" fill="#f2f2f2"></path>
        <path d="M197.409,254.685a5.585,5.585,0,0,1-.689-11.127l46.981-5.877a.982.982,0,0,1,.738.2,1,1,0,0,1,.379.665l1.138,9.1a1,1,0,0,1-.868,1.116l-46.982,5.877A5.669,5.669,0,0,1,197.409,254.685Zm45.548-14.9-45.989,5.754a3.585,3.585,0,0,0,.89,7.115l45.989-5.753Z" fill="#0c0c0c"></path>
      </g>
      <g>
        <path d="M324.663,242.454l-2.529-20.221a13.106,13.106,0,0,0-14.63-11.377l-64.756,8.1a13.094,13.094,0,0,0-1.5.284l-9.554,1.195a13.1,13.1,0,0,0-11.376,14.63l2.529,20.221a13.1,13.1,0,0,0,14.63,11.376l64.755-8.1a13.289,13.289,0,0,0,1.5-.284l9.553-1.2A13.1,13.1,0,0,0,324.663,242.454Z" fill="#f2f2f2"></path>
        <path d="M235.842,267.765a14.125,14.125,0,0,1-13.986-12.354l-2.53-20.221a14.106,14.106,0,0,1,12.245-15.746l9.5-1.188a13.733,13.733,0,0,1,1.556-.291l64.756-8.1a14.1,14.1,0,0,1,15.746,12.245l2.529,20.22a14.1,14.1,0,0,1-12.245,15.747l-9.5,1.188a14.414,14.414,0,0,1-1.556.291l-64.756,8.1A14.165,14.165,0,0,1,235.842,267.765Zm73.313-56.012a12.47,12.47,0,0,0-1.527.1l-64.756,8.1a12.215,12.215,0,0,0-1.385.263.912.912,0,0,1-.114.021l-9.554,1.195a12.118,12.118,0,0,0-10.508,13.514l2.529,20.221a12.119,12.119,0,0,0,13.514,10.508l64.756-8.1a12.215,12.215,0,0,0,1.386-.263,1.043,1.043,0,0,1,.114-.021l9.552-1.195a12.118,12.118,0,0,0,10.509-13.514h0l-2.529-20.22a12.11,12.11,0,0,0-11.987-10.6Z" fill="#0c0c0c"></path>
      </g>
      <g>
        <rect x="243.93" y="213.366" width="91.469" height="46.588" rx="13.105" transform="translate(-27.136 37.786) rotate(-7.13)" fill="#f2f2f2"></rect>
        <path d="M258.523,264.927a14.108,14.108,0,0,1-13.967-12.356l-2.529-20.221A14.1,14.1,0,0,1,254.271,216.6l64.756-8.1a14.123,14.123,0,0,1,15.746,12.245l2.529,20.221a14.119,14.119,0,0,1-12.244,15.746l-64.756,8.1A14.414,14.414,0,0,1,258.523,264.927Zm62.263-54.534a12.08,12.08,0,0,0-1.511.095l-64.756,8.1A12.1,12.1,0,0,0,244.011,232.1l2.529,20.221a12.1,12.1,0,0,0,13.514,10.508l64.756-8.1a12.119,12.119,0,0,0,10.508-13.514L332.788,221A12.123,12.123,0,0,0,320.786,210.393Zm4.148,45.33h0Z" fill="#0c0c0c"></path>
      </g>
    </g>
  </g>
</svg>